<svg xmlns="http://www.w3.org/2000/svg" xmlns:xlink="http://www.w3.org/1999/xlink" width="614" height="614" viewBox="0 0 614 614">
  <defs>
    <filter id="Ellipse_489" x="0" y="0" width="614" height="614" filterUnits="userSpaceOnUse">
      <feOffset dy="3" input="SourceAlpha"/>
      <feGaussianBlur stdDeviation="7" result="blur"/>
      <feFlood flood-color="#ffcfcf" flood-opacity="0.012"/>
      <feComposite operator="in" in2="blur"/>
      <feComposite in="SourceGraphic"/>
    </filter>
  </defs>
  <g id="django_2" data-name="django 2" transform="translate(-3516 1685)">
    <g id="symfony_2" data-name="symfony 2" transform="translate(-545.879 -694.879)">
      <g id="ruby-on-rails_2" data-name="ruby-on-rails 2" transform="translate(4083 -972)">
        <g id="django_2-2" data-name="django 2">
          <g id="codeigniter_2" data-name="codeigniter 2">
            <g id="react-native_2" data-name="react-native 2">
              <g id="laraval_2" data-name="laraval 2">
                <g transform="matrix(1, 0, 0, 1, -21.12, -18.12)" filter="url(#Ellipse_489)">
                  <circle id="Ellipse_489-2" data-name="Ellipse 489" cx="286" cy="286" r="286" transform="translate(21 18)" fill="#f8f7f7"/>
                </g>
                <circle id="Ellipse_488" data-name="Ellipse 488" cx="235" cy="235" r="235" transform="translate(50.879 50.879)" fill="#f3f3f3"/>
                <circle id="Ellipse_487" data-name="Ellipse 487" cx="182" cy="182" r="182" transform="translate(103.879 103.879)" fill="#eee"/>
                <path id="Path_19249" data-name="Path 19249" d="M120.818,0A120.818,120.818,0,1,1,0,120.818,120.818,120.818,0,0,1,120.818,0Z" transform="translate(165.061 165.061)" fill="#e9e9e9"/>
              </g>
            </g>
          </g>
        </g>
      </g>
    </g>
    <g id="django-community" transform="translate(3647 -1443)">
      <path id="Path_18" data-name="Path 18" d="M41.543,0H60.811V89.193a127.107,127.107,0,0,1-25.025,2.628C12.262,91.819,0,81.185,0,60.789,0,41.144,13.014,28.382,33.158,28.382a30.811,30.811,0,0,1,8.384,1Zm0,44.9a19.143,19.143,0,0,0-6.507-1c-9.76,0-15.391,6.006-15.391,16.516,0,10.261,5.381,15.891,15.266,15.891a44.868,44.868,0,0,0,6.632-.5Z" fill="#092e20"/>
      <path id="Path_19" data-name="Path 19" d="M104.2,29.782V74.451c0,15.391-1.127,22.774-4.5,29.155-3.129,6.132-7.258,10.01-15.766,14.266l-17.893-8.509c8.509-4,12.638-7.507,15.265-12.889,2.753-5.5,3.63-11.887,3.63-28.653V29.782ZM84.928.127H104.2V19.9H84.928Zm30.908,34.034a57.976,57.976,0,0,1,25.526-5.755c9.885,0,16.391,2.627,19.27,7.757,1.626,2.878,2.126,6.631,2.126,14.64V89.967a212.044,212.044,0,0,1-27.527,2.128c-16.141,0-23.4-5.633-23.4-18.144,0-13.515,9.635-19.771,33.283-21.773V47.923c0-3.5-1.752-4.754-6.632-4.754a50.462,50.462,0,0,0-22.648,5.881l0-14.89Zm30.156,30.656C133.229,66.068,129.1,68.07,129.1,73.076c0,3.753,2.378,5.5,7.633,5.5a53.157,53.157,0,0,0,9.259-.875Zm26.151-32.032c11.386-3,20.77-4.378,30.28-4.378,9.885,0,17.017,2.251,21.273,6.631,4,4.128,5.254,8.632,5.254,18.269V91.093H209.68V54.057c0-7.382-2.5-10.136-9.384-10.136a29.029,29.029,0,0,0-8.885,1.376v45.8H172.143Zm64.3,68.819a43.857,43.857,0,0,0,20.646,5.129c12.636,0,18.017-5.129,18.017-17.392v-.375a26.361,26.361,0,0,1-12.512,2.627c-16.892,0-27.655-11.136-27.655-28.778,0-21.9,15.892-34.285,44.044-34.285a121.633,121.633,0,0,1,25.151,2.752l-6.6,13.9c-5.13-1-.411-.134-4.288-.509v2l.249,8.132.124,10.511c.125,2.627.125,5.255.251,7.882v5.257c0,16.516-1.376,24.273-5.5,30.655-6.006,9.385-16.393,14.014-31.157,14.014a55.121,55.121,0,0,1-20.77-3.753l0-17.768ZM274.73,44.046h-2A21.054,21.054,0,0,0,261.592,46.8c-4.629,2.628-7.008,7.383-7.008,14.14,0,9.636,4.757,15.141,13.265,15.141a23.9,23.9,0,0,0,7.256-1.251V68.2c0-2.253-.124-4.757-.124-7.383l-.124-8.883-.126-6.382,0-1.5Zm59.318-15.891c19.269,0,31.031,12.138,31.031,31.782,0,20.146-12.261,32.784-31.782,32.784-19.27,0-31.158-12.138-31.158-31.657,0-20.272,12.265-32.909,31.909-32.909ZM333.671,77.2c7.383,0,11.763-6.132,11.763-16.767,0-10.51-4.255-16.766-11.636-16.766-7.634,0-12.014,6.132-12.014,16.766S326.165,77.2,333.671,77.2Z" transform="translate(-12.731 -0.024)" fill="#092e20"/>
    </g>
  </g>
</svg>
