<svg xmlns="http://www.w3.org/2000/svg" width="538" height="466" viewBox="0 0 538 466" fill="none">
<g clip-path="url(#clip0_612_634)">
<path d="M0 233L134.5 0.0391846H403.5L538 233L403.5 465.961H134.5L0 233Z" fill="white"/>
<g clip-path="url(#clip1_612_634)">
<path d="M269 383C351.843 383 419 315.843 419 233C419 150.157 351.843 83 269 83C186.157 83 119 150.157 119 233C119 315.843 186.157 383 269 383Z" fill="#1A171B"/>
<path d="M334.352 138.459C319.109 139.027 305.892 147.378 296 158.973C285.055 171.703 277.757 186.784 272.487 202.189C263.082 194.487 255.865 184.514 240.784 180.216C229.109 176.892 216.946 178.27 205.676 186.622C200.568 190.595 196.838 196.027 194.973 202.27C190.433 216.946 199.757 230 203.892 234.703L213.136 244.595C215 246.541 219.622 251.568 217.352 258.784C214.919 266.649 205.433 271.757 195.703 268.757C191.325 267.459 185.082 264.216 186.541 259.676C187.109 257.811 188.487 256.432 189.136 254.811C189.622 253.838 189.946 252.865 190.271 251.811C192.055 245.973 189.622 238.432 183.379 236.568C177.622 234.784 171.622 236.162 169.352 243.622C166.757 252.135 170.811 267.459 192.541 274.189C218 281.973 239.568 268.108 242.568 250.027C244.514 238.676 239.406 230.324 230 219.459L222.379 211.027C217.757 206.405 216.136 198.541 220.919 192.459C224.973 187.351 230.73 185.162 240.136 187.757C253.919 191.487 260 201.054 270.217 208.757C266 222.622 263.244 236.487 260.73 248.973L259.19 258.297C251.892 296.649 246.298 317.73 231.784 329.811C228.865 331.919 224.649 335 218.406 335.243C215.082 335.324 214.028 333.054 214.028 332.081C213.946 329.73 215.892 328.676 217.19 327.622C219.136 326.568 222.055 324.784 221.892 319.189C221.649 312.541 216.217 306.784 208.271 307.027C202.352 307.27 193.271 312.865 193.595 323.081C193.919 333.703 203.811 341.649 218.73 341.081C226.676 340.838 244.433 337.595 261.946 316.757C282.298 292.919 288.055 265.514 292.352 245.487L297.136 219.054C299.973 219.378 302.892 219.622 305.73 219.622C331.109 220.189 343.838 206.973 344 197.405C344.163 191.649 340.19 185.892 334.676 186.054C329.892 186.216 325.757 189.541 324.622 194.243C323.487 199.595 332.73 204.378 325.514 209.081C320.406 212.405 311.163 214.757 298.271 212.811L300.622 199.838C305.406 175.189 311.325 144.784 333.865 144.054C335.487 143.973 341.487 144.135 341.649 148.108C341.73 149.405 341.325 149.73 339.784 152.811C338.406 154.757 337.595 157.108 337.676 159.459C337.919 165.784 342.703 169.919 349.595 169.676C358.838 169.351 361.514 160.351 361.352 155.73C361.028 144.865 349.514 137.973 334.352 138.459Z" fill="white"/>
</g>
</g>
<defs>
<clipPath id="clip0_612_634">
<rect width="538" height="466" fill="white"/>
</clipPath>
<clipPath id="clip1_612_634">
<rect width="300" height="300" fill="white" transform="translate(119 83)"/>
</clipPath>
</defs>
</svg>
